PathFileType	4	(X/Y/Z)	C:\Users\Graham\Documents\MATLAB\MOtoNMS_v2_2\MyData\ElaboratedData\S2\17-05-16\staticElaborations\Static1\Static1\\Static1.trc
DataRate	CameraRate	NumFrames	NumMarkers	Units	OrigDataRate	DataStartFrame
100	100	5	38	mm	100	2
Frame#	Time	V_Sacral			R_ASIS			L_ASIS			R_Knee_Lat			R_Knee_Med			R_Thigh_Upper			R_Thigh_Front			R_Thigh_Rear			L_Knee_Lat			L_Knee_Med			L_Thigh_Upper			L_Thigh_Front			L_Thigh_Rear			R_Ankle_Lat			R_Ankle_Med			R_Shank_Upper			R_Shank_Front			R_Shank_Rear			L_Ankle_Lat			L_Ankle_Med			L_Shank_Upper			L_Shank_Front			L_Shank_Rear			R_Heel			R_MTP1			R_MTP5			L_Heel			L_MTP1			L_MTP5			Clavicle			R_Acromium			L_Acromium			LAJC			RAJC			LHJC			RHJC			LKJC			RKJC		
		X1	Y1	Z1	X2	Y2	Z2	X3	Y3	Z3	X4	Y4	Z4	X5	Y5	Z5	X6	Y6	Z6	X7	Y7	Z7	X8	Y8	Z8	X9	Y9	Z9	X10	Y10	Z10	X11	Y11	Z11	X12	Y12	Z12	X13	Y13	Z13	X14	Y14	Z14	X15	Y15	Z15	X16	Y16	Z16	X17	Y17	Z17	X18	Y18	Z18	X19	Y19	Z19	X20	Y20	Z20	X21	Y21	Z21	X22	Y22	Z22	X23	Y23	Z23	X24	Y24	Z24	X25	Y25	Z25	X26	Y26	Z26	X27	Y27	Z27	X28	Y28	Z28	X29	Y29	Z29	X30	Y30	Z30	X31	Y31	Z31	X32	Y32	Z32	X33	Y33	Z33	X34	Y34	Z34	X35	Y35	Z35	X36	Y36	Z36	X37	Y37	Z37	X38	Y38	Z38	

89	0.880000	161.095713	1005.694033	28.460225	367.687966	1017.112101	148.756128	357.028908	1026.385549	-86.862190	235.596883	519.129058	216.959030	242.424987	513.717638	108.508284	382.042423	740.480617	168.132492	334.681034	636.623868	138.362739	320.185229	648.516800	199.831156	252.097816	535.220604	-147.346093	244.379824	509.700265	-37.035636	357.771661	782.016537	-140.014948	352.265068	666.550560	-113.080357	299.836374	671.083918	-160.284544	187.900033	106.812095	244.124913	220.030108	107.764265	158.949849	265.897997	374.470954	219.806432	255.650579	258.859465	187.079606	214.052557	262.671757	253.697739	212.935799	90.945480	-182.771618	252.631588	113.310100	-102.056809	276.472327	357.126006	-163.579379	271.501100	245.723499	-129.482292	225.025810	250.655976	-190.763101	123.293473	62.990201	194.022365	354.885957	67.659304	200.262505	333.746792	51.262859	282.510810	147.209913	63.830012	-129.756121	388.576162	64.269010	-158.072887	354.548328	50.233262	-235.529936	332.171691	1391.486395	32.551150	234.348762	1440.488167	226.461709	268.913425	1442.838735	-170.597327	232.783693	102.127790	-142.414213	203.965070	107.288180	201.537381	306.932351	938.948720	-55.151197	314.626629	932.254649	114.930716	248.238820	522.460435	-92.190864	239.010935	516.423348	162.733657	
90	0.890000	161.068089	1005.691345	28.464918	367.660110	1017.114051	148.766727	357.002420	1026.384907	-86.850540	235.577688	519.129370	216.976765	242.480822	513.796037	108.560448	382.015782	740.482095	168.146712	334.656841	636.627548	138.378127	320.158265	648.518533	199.845741	252.107491	535.219691	-147.359310	244.377527	509.693181	-37.059219	357.762508	782.019441	-140.003288	352.262568	666.552669	-113.071880	299.832204	671.086064	-160.276264	187.899843	106.808884	244.129229	220.026849	107.763850	158.956018	265.891198	374.474681	219.819204	255.642434	258.860962	187.088254	214.043174	262.669485	253.707477	212.938249	90.942363	-182.773171	252.631360	113.310429	-102.057587	276.484289	357.116485	-163.585669	271.506228	245.717025	-129.484143	225.036621	250.648032	-190.769767	123.291242	62.987878	194.023928	354.888354	67.661675	200.262192	333.745234	51.261484	282.512636	147.209299	63.830359	-129.758496	388.575409	64.269908	-158.072671	354.548340	50.233131	-235.529406	332.138540	1391.485978	32.550181	234.335168	1440.503146	226.462307	268.871937	1442.825518	-170.600750	232.784805	102.126396	-142.415379	203.963346	107.286367	201.542624	306.906950	938.947882	-55.139167	314.600245	932.255680	114.942062	248.242509	522.456436	-92.209265	239.029255	516.462704	162.768607	
91	0.900000	161.039609	1005.691963	28.471307	367.634337	1017.114886	148.775244	356.972656	1026.383661	-86.840756	235.557339	519.130930	216.995879	242.553282	513.896984	108.623986	381.987616	740.482341	168.157941	334.628022	636.630214	138.391693	320.130251	648.520289	199.860042	252.109943	535.219013	-147.373070	244.366332	509.685878	-37.083526	357.746413	782.021256	-139.993918	352.252060	666.554513	-113.065995	299.819699	671.088311	-160.270907	187.897998	106.806202	244.133406	220.023142	107.764144	158.963229	265.881045	374.478785	219.831567	255.633730	258.864944	187.097256	214.033013	262.667519	253.717952	212.940376	90.939141	-182.775076	252.630774	113.311186	-102.058904	276.491086	357.108493	-163.593531	271.508661	245.711705	-129.486553	225.044849	250.640525	-190.778045	123.289422	62.985645	194.025985	354.889537	67.664090	200.262280	333.743182	51.259629	282.514453	147.208005	63.830166	-129.760735	388.574092	64.270513	-158.072822	354.548050	50.233220	-235.529315	332.109809	1391.487474	32.546867	234.327514	1440.523999	226.460610	268.835374	1442.811628	-170.606370	232.785575	102.125163	-142.416990	203.960570	107.285173	201.548318	306.877266	938.947412	-55.127927	314.573445	932.256709	114.952460	248.238137	522.452446	-92.228298	239.055310	516.513957	162.809932	
92	0.910000	161.010144	1005.696006	28.480223	367.611467	1017.114538	148.780885	356.939420	1026.381830	-86.833536	235.536565	519.133742	217.015576	242.636109	514.013418	108.694882	381.958835	740.481577	168.165481	334.595267	636.631921	138.402665	320.102346	648.522104	199.873400	252.103808	535.218617	-147.386306	244.346636	509.678682	-37.107134	357.722230	782.022085	-139.987508	352.232737	666.556097	-113.063574	299.797289	671.090617	-160.268731	187.894397	106.804048	244.137161	220.019195	107.765158	158.970990	265.867842	374.483057	219.842982	255.624852	258.871119	187.106237	214.022544	262.665776	253.728635	212.942064	90.935871	-182.777223	252.629901	113.312423	-102.060657	276.491596	357.102555	-163.602420	271.507907	245.707803	-129.489387	225.049401	250.633844	-190.787341	123.288117	62.983677	194.028328	354.889259	67.666237	200.262731	333.740786	51.257503	282.516075	147.206116	63.829337	-129.762693	388.572235	64.270794	-158.073345	354.547529	50.233628	-235.529714	332.085843	1391.490472	32.540884	234.326374	1440.550902	226.456391	268.803981	1442.796699	-170.614653	232.785983	102.124147	-142.418940	203.956796	107.284603	201.554075	306.843051	938.947376	-55.117985	314.546716	932.257740	114.961334	248.225222	522.448649	-92.246720	239.086337	516.573580	162.855229	
93	0.920000	160.979746	1005.703452	28.492413	367.592173	1017.113024	148.783136	356.902808	1026.379413	-86.829347	235.515969	519.137711	217.035108	242.718567	514.133591	108.766881	381.930233	740.480033	168.168896	334.559488	636.632803	138.410511	320.075519	648.523926	199.885262	252.087996	535.218529	-147.397918	244.319161	509.671894	-37.128511	357.689322	782.022010	-139.984400	352.204219	666.557342	-113.065065	299.763867	671.092874	-160.269599	187.889253	106.802368	244.140297	220.015253	107.766890	158.978841	265.852204	374.487378	219.853050	255.616049	258.878944	187.114867	214.012278	262.664179	253.739046	212.943198	90.932615	-182.779458	252.628797	113.314160	-102.062706	276.484907	357.099126	-163.611695	271.503567	245.705520	-129.492494	225.049287	250.628329	-190.796918	123.287293	62.982168	194.030680	354.887405	67.667747	200.263442	333.738258	51.255339	282.517369	147.203772	63.827872	-129.764265	388.569909	64.270745	-158.074210	354.546868	50.234377	-235.530579	332.066669	1391.494578	32.531876	234.332086	1440.583885	226.449407	268.777564	1442.780420	-170.626074	232.785997	102.123387	-142.421082	203.952253	107.284629	201.559569	306.804391	938.947781	-55.109681	314.520560	932.258794	114.968311	248.203578	522.445212	-92.263215	239.117268	516.635651	162.900995	
